<svg height="512" viewBox="0 0 64 64" width="512" xmlns="http://www.w3.org/2000/svg"><g id="Layer_4" data-name="Layer 4"><circle cx="32" cy="32" fill="#78b75b" r="30"/><path d="m2 32a29.87 29.87 0 0 0 6.79 19h1.9a20.06 20.06 0 0 0 14.19-5.88 7.24 7.24 0 0 0 0-10.24l-4.47-4.47a4.83 4.83 0 0 1 -1.41-3.41 4.83 4.83 0 0 0 -1.41-3.41l-1.18-1.18a4.83 4.83 0 0 1 -1.41-3.41v-2a4.83 4.83 0 0 0 -1.41-3.41l-2.8-2.8a29.91 29.91 0 0 0 -8.79 21.21z" fill="#f7d881"/><path d="m39.26 22.15a8.87 8.87 0 0 0 -6.41-14.15c-.28 0-.57 0-.85 0s-.57 0-.85 0a8.87 8.87 0 0 0 -6.41 14.12l7.26 9.88z" fill="#4472b0"/><path d="m40.36 3.19-3.31 4.41a9.43 9.43 0 0 0 -.93 1.34 8.9 8.9 0 0 1 3.29 13l.12.08a8.51 8.51 0 0 0 4 1 6 6 0 0 1 4.2 1.74l.27.24a6.84 6.84 0 0 0 4.83 2h8.75a30 30 0 0 0 -21.22-23.81z" fill="#f7d881"/><circle cx="32" cy="17" fill="#fff" r="5"/><path d="m61.93 34h-1.1a6.84 6.84 0 0 0 -4.83 2 6.84 6.84 0 0 1 -4.83 2h-2.34a6.84 6.84 0 0 0 -4.83 2l-1 1a6.84 6.84 0 0 0 -2 4.83v.34a6.84 6.84 0 0 1 -2 4.83 6.84 6.84 0 0 0 -2 4.83v5.75a30 30 0 0 0 24.93-27.58z" fill="#f7d881"/></g></svg>