<svg height="512" viewBox="0 0 64 64" width="512" xmlns="http://www.w3.org/2000/svg"><g id="Layer_4" data-name="Layer 4"><circle cx="32" cy="32" fill="#78b75b" r="30"/><path d="m2 32a29.87 29.87 0 0 0 6.79 19h1.9a20.06 20.06 0 0 0 14.19-5.88 7.24 7.24 0 0 0 0-10.24l-4.47-4.47a4.83 4.83 0 0 1 -1.41-3.41 4.83 4.83 0 0 0 -1.41-3.41l-1.18-1.18a4.83 4.83 0 0 1 -1.41-3.41v-2a4.83 4.83 0 0 0 -1.41-3.41l-2.8-2.8a29.91 29.91 0 0 0 -8.79 21.21z" fill="#f7d881"/><path d="m39.26 22.15a8.87 8.87 0 0 0 -6.41-14.15c-.28 0-.57 0-.85 0s-.57 0-.85 0a8.87 8.87 0 0 0 -6.41 14.12l7.26 9.88z" fill="#4472b0"/><path d="m40.36 3.19-3.31 4.41a9.43 9.43 0 0 0 -.93 1.34 8.9 8.9 0 0 1 3.29 13l.12.08a8.51 8.51 0 0 0 4 1 6 6 0 0 1 4.2 1.74l.27.24a6.84 6.84 0 0 0 4.83 2h8.75a30 30 0 0 0 -21.22-23.81z" fill="#f7d881"/><circle cx="32" cy="17" fill="#fff" r="5"/><path d="m61.93 34h-1.1a6.84 6.84 0 0 0 -4.83 2 6.84 6.84 0 0 1 -4.83 2h-2.34a6.84 6.84 0 0 0 -4.83 2l-1 1a6.84 6.84 0 0 0 -2 4.83v.34a6.84 6.84 0 0 1 -2 4.83 6.84 6.84 0 0 0 -2 4.83v5.75a30 30 0 0 0 24.93-27.58z" fill="#f7d881"/><path d="m32 1a31 31 0 1 0 31 31 31 31 0 0 0 -31-31zm28.37 25h-7.54a5.79 5.79 0 0 1 -4.12-1.71l-.26-.29a6.87 6.87 0 0 0 -4.91-2 7.56 7.56 0 0 1 -2.7-.5 9.78 9.78 0 0 0 .25-8.76 9.68 9.68 0 0 0 -3.55-4.13l.27-.36 3.26-3.79a29.09 29.09 0 0 1 19.3 21.54zm-21.91-4.44-6.46 8.75-6.45-8.75a7.8 7.8 0 0 1 -.82-8 7.72 7.72 0 0 1 6.5-4.56h.77s.51 0 .77 0a7.72 7.72 0 0 1 6.5 4.54 7.8 7.8 0 0 1 -.82 8zm-27.65-9.33 2.07 2.06a3.84 3.84 0 0 1 1.12 2.71v2a5.79 5.79 0 0 0 1.71 4.12l1.17 1.17a3.84 3.84 0 0 1 1.12 2.71 5.79 5.79 0 0 0 1.71 4.12l4.46 4.47a6.23 6.23 0 0 1 0 8.82 18.91 18.91 0 0 1 -13.48 5.59h-1.4a28.91 28.91 0 0 1 1.52-37.77zm.19 39.77a20.93 20.93 0 0 0 14.58-6.15 8.26 8.26 0 0 0 0-11.66l-4.47-4.46a3.84 3.84 0 0 1 -1.11-2.73 5.79 5.79 0 0 0 -1.71-4.12l-1.17-1.17a3.84 3.84 0 0 1 -1.12-2.71v-2a5.79 5.79 0 0 0 -1.71-4.12l-2.06-2.07a28.93 28.93 0 0 1 26.77-6.96l-2.71 3.15c-.19.24-.38.48-.56.73a9.68 9.68 0 0 0 -2.81-.73 11.3 11.3 0 0 0 -1.84 0 9.68 9.68 0 0 0 -8.17 5.7 9.79 9.79 0 0 0 1 10l7.26 9.84a1 1 0 0 0 1.6 0l6.94-9.4a9.53 9.53 0 0 0 3.8.81 4.91 4.91 0 0 1 3.49 1.5l.25.26a7.78 7.78 0 0 0 5.58 2.29h7.89a29.31 29.31 0 0 1 .28 4v1h-.14a7.78 7.78 0 0 0 -5.54 2.29 5.79 5.79 0 0 1 -4.15 1.71h-2.34a7.78 7.78 0 0 0 -5.54 2.29l-1 1a7.78 7.78 0 0 0 -2.29 5.54v.34a5.79 5.79 0 0 1 -1.71 4.12 7.78 7.78 0 0 0 -2.29 5.54v4.89a29.31 29.31 0 0 1 -4 .28 28.93 28.93 0 0 1 -21-9zm27 8.39v-4.56a5.79 5.79 0 0 1 1.71-4.12 7.78 7.78 0 0 0 2.29-5.54v-.34a5.79 5.79 0 0 1 1.71-4.12l1-1a5.79 5.79 0 0 1 4.12-1.71h2.34a7.78 7.78 0 0 0 5.54-2.29 5.79 5.79 0 0 1 4.12-1.71 29 29 0 0 1 -22.83 25.37z"/><path d="m32 11a6 6 0 1 0 6 6 6 6 0 0 0 -6-6zm0 10a4 4 0 1 1 4-4 4 4 0 0 1 -4 4z"/></g></svg>