<?xml version="1.0"?>
<svg xmlns="http://www.w3.org/2000/svg" viewBox="0 0 64 64" width="512" height="512"><g fill="#fff" id="Layer_4" data-name="Layer 4"><path d="M39.27,13.57A7.72,7.72,0,0,0,32.77,9c-.26,0-.51,0-.77,0s-.51,0-.77,0a7.72,7.72,0,0,0-6.5,4.54,7.8,7.8,0,0,0,.82,8L32,30.31l6.46-8.75h0A7.8,7.8,0,0,0,39.27,13.57ZM32,23a6,6,0,1,1,6-6A6,6,0,0,1,32,23Z"/><path d="M37.54,8.61a9.68,9.68,0,0,1,3.55,4.13,9.78,9.78,0,0,1-.25,8.76,7.56,7.56,0,0,0,2.7.5,6.87,6.87,0,0,1,4.91,2l.26.25A5.79,5.79,0,0,0,52.83,26h7.54A29.09,29.09,0,0,0,41.07,4.46L37.81,8.25Z"/><circle cx="32" cy="17" r="4"/><path d="M56.71,36.71A7.78,7.78,0,0,1,51.17,39H48.83a5.79,5.79,0,0,0-4.12,1.71l-1,1A5.79,5.79,0,0,0,42,45.83v.34a7.78,7.78,0,0,1-2.29,5.54A5.79,5.79,0,0,0,38,55.83v4.54A29,29,0,0,0,60.84,35h0A5.79,5.79,0,0,0,56.71,36.71Z"/><path d="M60.72,28H52.83a7.78,7.78,0,0,1-5.54-2.29L47,25.45A4.91,4.91,0,0,0,43.54,24a9.53,9.53,0,0,1-3.8-.81l-6.94,9.4a1,1,0,0,1-1.6,0l-7.26-9.84a9.79,9.79,0,0,1-1-10A9.68,9.68,0,0,1,31.08,7a11.3,11.3,0,0,1,1.84,0,9.68,9.68,0,0,1,2.81.64c.18-.25.37-.49.56-.73L39,3.85a28.93,28.93,0,0,0-26.73,7l2.06,2.07A5.79,5.79,0,0,1,16,17v2a3.84,3.84,0,0,0,1.12,2.71l1.17,1.17A5.79,5.79,0,0,1,20,27a3.84,3.84,0,0,0,1.12,2.71l4.47,4.46a8.26,8.26,0,0,1,0,11.66A20.93,20.93,0,0,1,11,52a28.93,28.93,0,0,0,21,9,29.31,29.31,0,0,0,4-.28V55.83a7.78,7.78,0,0,1,2.29-5.54A5.79,5.79,0,0,0,40,46.17v-.34a7.78,7.78,0,0,1,2.29-5.54l1-1A7.78,7.78,0,0,1,48.83,37h2.34a5.79,5.79,0,0,0,4.12-1.71A7.78,7.78,0,0,1,60.83,33H61c0-.33,0-.66,0-1A29.31,29.31,0,0,0,60.72,28Z"/><path d="M26,40a6.19,6.19,0,0,0-1.83-4.41l-4.46-4.47A5.79,5.79,0,0,1,18,27a3.84,3.84,0,0,0-1.12-2.71l-1.17-1.17A5.79,5.79,0,0,1,14,19V17a3.84,3.84,0,0,0-1.12-2.71l-2.07-2.06A28.91,28.91,0,0,0,9.29,50h1.4a18.91,18.91,0,0,0,13.48-5.59A6.19,6.19,0,0,0,26,40Z"/></g></svg>
