<?xml version="1.0"?>
<svg xmlns="http://www.w3.org/2000/svg" viewBox="0 0 64 64" width="512" height="512"><g id="Layer_4" data-name="Layer 4"><path d="M32,1A31,31,0,1,0,63,32,31,31,0,0,0,32,1ZM60.37,26H52.83a5.79,5.79,0,0,1-4.12-1.71L48.45,24a6.87,6.87,0,0,0-4.91-2,7.56,7.56,0,0,1-2.7-.5,9.78,9.78,0,0,0,.25-8.76,9.68,9.68,0,0,0-3.55-4.13l.27-.36,3.26-3.79A29.09,29.09,0,0,1,60.37,26ZM38.46,21.56,32,30.31l-6.45-8.75a7.8,7.8,0,0,1-.82-8A7.72,7.72,0,0,1,31.23,9c.26,0,.51,0,.77,0s.51,0,.77,0a7.72,7.72,0,0,1,6.5,4.54,7.8,7.8,0,0,1-.82,8ZM10.81,12.23l2.07,2.06A3.84,3.84,0,0,1,14,17v2a5.79,5.79,0,0,0,1.71,4.12l1.17,1.17A3.84,3.84,0,0,1,18,27a5.79,5.79,0,0,0,1.71,4.12l4.46,4.47a6.23,6.23,0,0,1,0,8.82A18.91,18.91,0,0,1,10.69,50H9.29a28.91,28.91,0,0,1,1.52-37.77ZM11,52a20.93,20.93,0,0,0,14.58-6.15,8.26,8.26,0,0,0,0-11.66l-4.47-4.46A3.84,3.84,0,0,1,20,27a5.79,5.79,0,0,0-1.71-4.12l-1.17-1.17A3.84,3.84,0,0,1,16,19V17a5.79,5.79,0,0,0-1.71-4.12l-2.06-2.07A28.93,28.93,0,0,1,39,3.85L36.29,7c-.19.24-.38.48-.56.73A9.68,9.68,0,0,0,32.92,7a11.3,11.3,0,0,0-1.84,0,9.68,9.68,0,0,0-8.17,5.7,9.79,9.79,0,0,0,1,10l7.26,9.84a1,1,0,0,0,1.6,0l6.94-9.4a9.53,9.53,0,0,0,3.8.81A4.91,4.91,0,0,1,47,25.45l.25.26A7.78,7.78,0,0,0,52.83,28h7.89A29.31,29.31,0,0,1,61,32c0,.34,0,.67,0,1h-.14a7.78,7.78,0,0,0-5.54,2.29A5.79,5.79,0,0,1,51.17,37H48.83a7.78,7.78,0,0,0-5.54,2.29l-1,1A7.78,7.78,0,0,0,40,45.83v.34a5.79,5.79,0,0,1-1.71,4.12A7.78,7.78,0,0,0,36,55.83v4.89A29.31,29.31,0,0,1,32,61,28.93,28.93,0,0,1,11,52Zm27,8.39V55.83a5.79,5.79,0,0,1,1.71-4.12A7.78,7.78,0,0,0,42,46.17v-.34a5.79,5.79,0,0,1,1.71-4.12l1-1A5.79,5.79,0,0,1,48.83,39h2.34a7.78,7.78,0,0,0,5.54-2.29A5.79,5.79,0,0,1,60.83,35h0A29,29,0,0,1,38,60.37Z"/><path d="M32,11a6,6,0,1,0,6,6A6,6,0,0,0,32,11Zm0,10a4,4,0,1,1,4-4A4,4,0,0,1,32,21Z"/></g></svg>
